<svg width="30" height="30" viewBox="0 0 30 30" fill="none" xmlns="http://www.w3.org/2000/svg">
<path d="M15 26.25L13.1875 24.625C11.0833 22.7292 9.34375 21.0938 7.96875 19.7188C6.59375 18.3438 5.5 17.1092 4.6875 16.015C3.875 14.9208 3.3075 13.9158 2.985 13C2.6625 12.0842 2.50083 11.1467 2.5 10.1875C2.5 8.22917 3.15625 6.59375 4.46875 5.28125C5.78125 3.96875 7.41667 3.3125 9.375 3.3125C10.4583 3.3125 11.4896 3.54167 12.4688 4C13.4479 4.45833 14.2917 5.10417 15 5.9375C15.7083 5.10417 16.5521 4.45833 17.5312 4C18.5104 3.54167 19.5417 3.3125 20.625 3.3125C22.5833 3.3125 24.2188 3.96875 25.5312 5.28125C26.8437 6.59375 27.5 8.22917 27.5 10.1875C27.5 11.1458 27.3388 12.0833 27.0163 13C26.6938 13.9167 26.1258 14.9217 25.3125 16.015C24.4992 17.1083 23.4054 18.3429 22.0312 19.7188C20.6571 21.0946 18.9175 22.73 16.8125 24.625L15 26.25ZM15 22.875C17 21.0833 18.6458 19.5471 19.9375 18.2662C21.2292 16.9854 22.25 15.8708 23 14.9225C23.75 13.9742 24.2708 13.13 24.5625 12.39C24.8542 11.65 25 10.9158 25 10.1875C25 8.9375 24.5833 7.89583 23.75 7.0625C22.9167 6.22917 21.875 5.8125 20.625 5.8125C19.6458 5.8125 18.7396 6.08833 17.9062 6.64C17.0729 7.19167 16.5 7.895 16.1875 8.75H13.8125C13.5 7.89583 12.9271 7.19292 12.0938 6.64125C11.2604 6.08958 10.3542 5.81333 9.375 5.8125C8.125 5.8125 7.08333 6.22917 6.25 7.0625C5.41667 7.89583 5 8.9375 5 10.1875C5 10.9167 5.14583 11.6512 5.4375 12.3912C5.72917 13.1313 6.25 13.975 7 14.9225C7.75 15.87 8.77083 16.9846 10.0625 18.2662C11.3542 19.5479 13 21.0842 15 22.875Z" fill="black"/>
</svg>
