<svg width="30" height="30" viewBox="0 0 30 30" fill="none" xmlns="http://www.w3.org/2000/svg">
<path fill-rule="evenodd" clip-rule="evenodd" d="M15.3125 3.5425C14.7375 3.445 13.9525 3.4375 12.5375 3.4375C10.1412 3.4375 8.4375 3.44 7.1475 3.6125C5.8825 3.78125 5.15625 4.1 4.6275 4.6275C4.09875 5.155 3.78125 5.88125 3.6125 7.13875C3.44 8.42375 3.4375 10.1163 3.4375 12.5013V17.5013C3.4375 19.8838 3.44 21.5763 3.6125 22.8612C3.78125 24.1187 4.09875 24.8438 4.6275 25.3737C5.15625 25.9012 5.88125 26.2188 7.13875 26.3875C8.42375 26.5613 10.1163 26.5625 12.5 26.5625H17.5C19.8837 26.5625 21.5775 26.56 22.8625 26.3875C24.1188 26.2188 24.8438 25.9013 25.3725 25.3725C25.9013 24.8438 26.2188 24.1187 26.3875 22.8612C26.56 21.5775 26.5625 19.8837 26.5625 17.5V16.9537C26.5625 15.0337 26.55 14.1237 26.345 13.4375H22.4325C21.0162 13.4375 19.86 13.4375 18.945 13.315C17.9913 13.1863 17.1637 12.9088 16.5025 12.2475C15.8412 11.5863 15.5637 10.76 15.435 9.80375C15.3125 8.89125 15.3125 7.73375 15.3125 6.31625V3.5425ZM17.1875 4.5125V6.25C17.1875 7.75 17.19 8.78 17.2937 9.55375C17.3938 10.3013 17.5737 10.6675 17.8287 10.9213C18.0837 11.175 18.4487 11.3562 19.1963 11.4563C19.97 11.56 21 11.5625 22.5 11.5625H25.025C24.5453 11.1058 24.0577 10.6574 23.5625 10.2175L18.6138 5.76375C18.1469 5.33696 17.6714 4.91979 17.1875 4.5125ZM12.7188 1.5625C14.45 1.5625 15.5687 1.5625 16.5975 1.95625C17.6262 2.35125 18.4538 3.09625 19.735 4.25L19.8688 4.37L24.8162 8.82375L24.9725 8.96375C26.4525 10.295 27.41 11.1562 27.9238 12.3112C28.4375 13.4663 28.4387 14.7538 28.4375 16.7438V17.57C28.4375 19.8675 28.4375 21.6875 28.2463 23.1112C28.0487 24.5763 27.6337 25.7625 26.6987 26.6987C25.7625 27.6337 24.5763 28.0487 23.1112 28.2463C21.6863 28.4375 19.8675 28.4375 17.57 28.4375H12.43C10.1325 28.4375 8.3125 28.4375 6.88875 28.2463C5.42375 28.0487 4.2375 27.6337 3.30125 26.6987C2.36625 25.7625 1.95125 24.5763 1.75375 23.1112C1.5625 21.6863 1.5625 19.8675 1.5625 17.57V12.4312C1.5625 10.1337 1.5625 8.31375 1.75375 6.89C1.95125 5.425 2.36625 4.23875 3.30125 3.3025C4.23875 2.36625 5.4275 1.9525 6.89875 1.755C8.32875 1.56375 10.1575 1.56375 12.4675 1.56375H12.72" fill="black"/>
</svg>
