<svg width="145" height="145" viewBox="0 0 145 145" fill="none" xmlns="http://www.w3.org/2000/svg">
<path d="M111 45C111.88 45.6236 112.666 46.4471 113.435 47.2042C119.347 53.0213 125.034 59.0777 130.948 64.8955C131.974 65.9043 133.869 68.1194 134.993 68.7499L135 97.1663C135.01 103.946 133.509 103.706 128.963 107.99L117.718 118.654C116.997 119.351 116.024 120.52 115.183 121C114.034 120.271 112.964 119.321 111.864 118.506C114.078 116.531 113.532 115.153 113.531 112.417L113.528 98.8876C113.534 96.116 114.149 93.3523 111 92.1378V84.2966C112.245 84.1 113.078 83.0762 113.274 81.8328C113.731 78.9284 113.825 64.3357 113.253 61.5877C112.982 60.2862 112.019 59.6499 111 58.9641C111.062 58.1005 111.009 57.1989 111.007 56.3308L111 50.9911V45Z" fill="#9FA9B0"/>
<path d="M114.961 120.658C112.768 122.844 102.128 133.197 99.9024 134.384C98.033 135.381 71.6833 134.802 67.5771 134.802L55.1038 134.804C47.671 134.805 47.8587 136.225 42.6105 131.407L24.5299 114.891C20.5702 111.197 16.3655 107.761 12.4765 103.988C8.89593 100.514 10.252 90.9604 10.2514 85.9766L10.2529 50.2899C10.2532 47.5731 9.50896 43.9723 11.602 41.8549C16.9981 36.3956 24.1205 30.642 29.9009 25.3073L44.0381 12.2654C45.7731 10.6353 46.2658 10.0604 48.7964 10.037L93.3407 10.0388C94.547 10.0391 97.8766 9.88089 98.8633 10.2012C100.222 10.6423 105.085 15.5281 106.341 16.6844L128.186 36.6013C132.717 40.7665 134.997 41.1524 135 47.6692L134.998 68.8724C133.861 68.2476 131.944 66.0522 130.907 65.0523C124.925 59.2862 119.173 53.2836 113.194 47.5182C112.416 46.7678 111.621 45.9516 110.731 45.3336V51.2714L110.739 56.5637C110.74 57.424 110.793 58.3176 110.731 59.1736C111.762 59.8533 112.736 60.4839 113.01 61.7739C113.588 64.4974 113.493 78.9606 113.031 81.8392C112.833 83.0715 111.99 84.0863 110.731 84.2811V92.0526C113.916 93.2563 113.294 95.9955 113.288 98.7425L113.291 112.152C113.292 114.863 113.844 116.229 111.605 118.187C112.717 118.994 113.8 119.936 114.961 120.658Z" fill="#D2D7DA"/>
<path d="M62.1738 21.0754L76.6975 21.0747C78.2595 21.0758 83.6238 20.7439 84.7231 21.4703C86.9045 22.9119 86.0924 26.3421 83.7855 26.8481L70.1085 26.8496C68.3489 26.8504 62.5025 27.4056 61.1661 26.3775C59.1809 24.8498 59.8712 21.5151 62.1738 21.0754Z" fill="#9FA9B0"/>
<path d="M35 51C35.5539 44.8831 33.607 40.72 38.7307 35.2958C44.0982 29.6132 52.2989 31.2056 59.4979 31.2049L94.1642 31.1993C95.8926 31.199 97.9963 31.0123 99.6844 31.3186C106.238 32.507 110.925 38.0829 111 44.8971V51C108.229 50.9191 105.431 50.999 102.657 50.999L35 51Z" fill="#F6CE52"/>
<path d="M35.1671 51.0352L102.086 51.0342C104.829 51.0342 107.597 50.9566 110.338 51.0352L110.345 56.3203C110.346 57.1795 110.399 58.0719 110.338 58.9266C111.361 59.6055 112.329 60.2352 112.601 61.5235C113.176 64.2433 113.081 78.6867 112.622 81.5615C112.426 82.7921 111.588 83.8055 110.338 84H35.1671C31.2866 82.6955 32.1287 79.2263 32.1331 75.9008L32.1361 68.3761C32.1355 64.8527 31.0235 59.877 35.1671 58.9266C35.0103 57.4706 35.0198 52.5231 35.1671 51.0352Z" fill="#F6CE52"/>
<path d="M51.2772 64C54.1463 64.2784 56.944 69.386 59.3289 70.3017C59.5579 70.3897 80.4158 70.6893 84.2892 70.418C87.5436 70.1895 91.1395 63.7914 94.0993 64.0121C97.9289 64.2976 97.7668 68.357 94.7836 70.8595C89.8228 75.1278 90.128 76.781 84.0419 76.7804H64.7052C56.9834 76.7787 58.2491 78.2452 53.0682 73.6216C50.949 71.7304 46.2822 68.8693 48.6572 65.5298C49.296 64.6313 50.2066 64.1702 51.2772 64Z" fill="#D2D7DA"/>
<path d="M35.1151 51.0355L102.643 51.0345C105.411 51.0345 108.204 50.9562 110.97 51.0355L110.977 56.3696C110.979 57.2367 111.032 58.1373 110.97 59C108.433 58.8505 105.608 58.9986 103.034 58.999L35.1151 59C34.9569 57.5305 34.9665 52.5372 35.1151 51.0355Z" fill="#9FA9B0"/>
<path d="M35.3136 84H110.399V91.8306C113.56 93.0435 112.942 95.8035 112.937 98.5713L112.94 112.083C112.94 114.815 113.489 116.191 111.266 118.164C108.985 119.492 99.4385 118.84 96.4305 118.84L47.8933 118.841C44.1323 118.841 40.3301 118.965 36.5731 118.846C30.3238 118.649 32.2969 108.218 32.2912 103.938L32.2797 98.4817C32.273 95.3736 32.0165 93.0951 35.3136 91.8306C35.2448 89.2276 35.3126 86.6047 35.3136 84Z" fill="#F6CE52"/>
<path d="M85.2148 104.798C87.4223 103.279 90.4774 98.975 92.7642 98.1625C94.5177 97.5394 96.4598 98.7888 96.9192 100.533C97.3905 102.322 95.6805 103.349 94.8934 104.682L94.8264 104.798C92.4933 105.995 89.7917 110.035 87.8163 110.721C86.8162 111.068 76.0826 110.887 74.1743 110.887L63.7766 110.886C55.8447 110.884 57.8953 112.06 52.4958 106.898C51.1585 105.62 48.4862 103.846 48.0754 101.918C47.6596 99.9673 49.0126 98.3122 50.9165 98.0102C54.6928 97.8125 56.8901 103.758 60.0504 104.671C61.1638 104.993 66.1712 104.794 67.6743 104.794L85.2148 104.798Z" fill="#D2D7DA"/>
<path d="M35.0312 84H111V92C109.744 91.8735 108.439 91.9923 107.176 91.9969L38.9259 91.9951C37.6549 91.9937 36.2908 91.8819 35.0312 92C34.9615 89.3407 35.0302 86.6611 35.0312 84Z" fill="#9FA9B0"/>
</svg>
